<?xml version="1.0" encoding="utf-8"?>
<!-- Svg Vector Icons : http://www.onlinewebfonts.com/icon -->
<!DOCTYPE svg PUBLIC "-//W3C//DTD SVG 1.1//EN" "http://www.w3.org/Graphics/SVG/1.1/DTD/svg11.dtd">
<svg version="1.1" xmlns="http://www.w3.org/2000/svg" xmlns:xlink="http://www.w3.org/1999/xlink" x="0px" y="0px" viewBox="0 0 1000 1000" enable-background="new 0 0 1000 1000" xml:space="preserve">
<metadata> Svg Vector Icons : http://www.onlinewebfonts.com/icon </metadata>
<g><g transform="translate(0.000000,512.000000) scale(0.100000,-0.100000)"><path d="M3973.5,4214.5l-402.7-805.5h-326h-326l-46,86.3c-57.5,107.4-170.7,211-287.7,264.7c-128.5,59.4-358.6,57.5-494.8-3.8c-113.1-49.9-260.8-197.5-304.9-299.2c-74.8-180.3-72.9-381.6,5.8-535.1c46-90.1,191.8-232.1,274.2-270.4l76.7-34.5v-631v-629h-124.7c-76.7,0-149.6-11.5-184.1-30.7c-105.5-53.7-113.1-105.5-113.1-678.9V129.6h-326c-211,0-341.4-7.7-374-23c-111.2-49.9-105.5,71-105.5-2429.8c0-1743.3,5.8-2312.9,23-2351.2c51.8-113.2-216.7-105.5,4061.9-105.5c3638.1,0,3939.1,1.9,3989,32.6c30.7,17.2,63.3,51.8,74.8,76.7c30.7,69.1,28.8,4627.6-1.9,4694.8c-42.2,92-97.8,105.5-456.4,105.5h-326v517.8c0,573.4-7.7,625.2-113.2,678.9c-34.5,19.2-107.4,30.7-184.1,30.7H7857v629v631l76.7,34.5c97.8,44.1,239.7,195.6,291.5,312.6c55.6,124.7,55.6,343.3,0,467.9c-55.6,126.6-197.5,270.4-316.4,324.1c-136.2,61.4-366.3,63.3-494.8,3.8c-117-53.7-230.1-157.3-287.7-264.7l-46-86.3h-374h-374l-278.1-556.2c-153.4-304.9-281.9-556.2-289.6-556.2c-5.7,0-316.4,613.7-688.5,1361.6c-374,749.9-684.7,1361.6-690.4,1361.6C4380.1,5020,4194.1,4657.5,3973.5,4214.5z M5076.2,2737.8c374-747.9,684.7-1361.6,690.4-1361.6c5.7,0,191.8,362.5,412.3,805.5l400.8,805.5h249.3h251.2l46-86.3c51.8-99.7,164.9-207.1,260.8-253.1l67.1-32.6v-629v-629h-124.7c-67.1,0-145.7-9.6-172.6-23c-99.7-44.1-105.5-82.5-105.5-667.4v-537h-2052h-2052v537c0,374-7.7,550.4-23,584.9c-32.6,72.9-111.2,105.5-255.1,105.5h-124.7v629v627.1l86.3,46c97.8,51.8,207.1,164.9,253.1,260.8l32.6,67.1l450.7,3.8l452.6,5.7l278.1,550.4c153.4,304.9,281.9,552.3,287.7,552.3C4391.6,4099.5,4702.3,3487.7,5076.2,2737.8z M2420.1,3382.2c67.1-28.8,124.7-113.1,124.7-184.1c0-128.5-138.1-232.1-260.8-191.8c-180.3,59.5-193.7,299.2-19.2,375.9C2339.6,3414.8,2341.5,3414.8,2420.1,3382.2z M7805.3,3330.4c143.8-155.3-26.8-398.9-222.5-316.4c-71,28.8-128.5,113.1-128.5,184.1c0,69,57.5,155.3,120.8,182.2C7657.6,3416.7,7740.1,3399.5,7805.3,3330.4z M2544.8,542V129.6h-201.4H2142V542v412.3h201.4h201.4V542z M7857,542V129.6h-201.4h-201.4V542v412.3h201.4H7857V542z M8681.7-2325.1v-2052H4999.5H1317.4v2052v2052h3682.2h3682.2V-2325.1z"/><path d="M4731-1109.2C3542-1260.7,2640.7-2198.5,2552.4-3378l-13.4-174.5h2460.5h2460.5l-13.4,174.5c-82.5,1089.3-855.3,1979.2-1929.3,2224.6C5358.2-1116.9,4882.5-1090,4731-1109.2z M5223.9-1521.6c481.4-53.7,918.6-270.4,1252.3-623.3c228.2-239.7,377.8-489,469.9-780.5c80.6-251.2,184.1-224.4-843.8-224.4h-891.8v316.4c0,356.7-17.3,429.6-113.2,477.5c-72.9,38.4-122.7,38.4-195.6,0c-95.9-47.9-113.1-120.8-113.1-477.5v-316.4h-891.8c-1027.9,0-924.4-26.9-843.8,224.4c235.9,742.2,928.2,1315.6,1697.2,1403.8C4957.3-1498.5,5018.7-1498.5,5223.9-1521.6z"/></g></g>
</svg>